#!OML:ASF G:\JayActor3\Patient Classification 1\Patient 1\Session 5\male.ASF
:FULLY-SPECIFIED
:DEGREES
1392
root 5.34863 16.5107 -3.51742 -206.408 -71.3965 202.901
lowerback 7.72751 -1.35444 8.13962
upperback 1.50501 -1.18474 1.30425
thorax -2.90134 -0.691377 -3.08981
lowerneck -2.12621 -0.913319 1.73096
upperneck 4.68047 -1.48502 2.99389
head 1.82796 -0.667097 0.610253
rclavicle -9.36276e-014 -2.14687e-014
rhumerus -41.1437 -16.4545 -80.7923
rradius 18.3158
rwrist 15.4433
rhand -21.687 -9.95831
rfingers 7.12502
rthumb 4.71098 -39.8859
lclavicle -9.36276e-014 -2.14687e-014
lhumerus -40.8889 27.2959 67.3704
lradius 9.18466
lwrist -4.30201
lhand -19.1335 12.4503
lfingers 7.12502
lthumb 7.17628 42.3086
rfemur 23.0311 -3.68064 36.4719
rtibia -4.45278e-014
rfoot -15.0337 -0.577587
rtoes 8.32007
lfemur -42.4641 0.108883 -19.5826
ltibia 35.2142
lfoot -28.2675 6.07203
ltoes -22.9754
1393
root 5.25119 16.4932 -3.55179 -206.248 -71.1141 202.942
lowerback 7.49291 -1.2938 8.22853
upperback 1.4669 -1.11722 1.32007
thorax -2.80377 -0.655574 -3.13365
lowerneck -2.16178 -0.898343 1.73553
upperneck 4.60928 -1.46518 3.03134
head 1.81149 -0.656995 0.621483
rclavicle -6.51641e-015 -1.39149e-015
rhumerus -41.2058 -16.6437 -80.6381
rradius 18.2415
rwrist 15.6448
rhand -21.7371 -9.98649
rfingers 7.12502
rthumb 4.66261 -39.9152
lclavicle -6.51641e-015 -1.39149e-015
lhumerus -40.919 27.3356 67.3017
lradius 9.08065
lwrist -4.38563
lhand -19.2711 12.3872
lfingers 7.12502
lthumb 7.04344 42.25
rfemur 23.2395 -3.4862 36.6199
rtibia -7.63333e-014
rfoot -14.8785 -0.491431
rtoes 8.52849
lfemur -41.6682 -0.0012428 -19.3034
ltibia 34.2282
lfoot -28.5162 5.66608
ltoes -23.007
1394
root 5.15207 16.4762 -3.58677 -206.088 -70.8262 202.975
lowerback 7.27155 -1.23451 8.32322
upperback 1.43132 -1.05055 1.33089
thorax -2.71096 -0.620329 -3.18519
lowerneck -2.18874 -0.881647 1.74346
upperneck 4.52254 -1.44229 3.06871
head 1.7884 -0.645661 0.632187
rclavicle 3.87816e-014 2.14687e-014
rhumerus -41.2537 -16.8442 -80.4813
rradius 18.1336
rwrist 15.894
rhand -21.7878 -9.9997
rfingers 7.12502
rthumb 4.61371 -39.9295
lclavicle 3.87816e-014 2.14687e-014
lhumerus -40.945 27.3794 67.2256
lradius 8.98037
lwrist -4.46878
lhand -19.3629 12.3544
lfingers 7.12502
lthumb 6.95483 42.2201
rfemur 23.4692 -3.28703 36.764
rtibia 6.04305e-014
rfoot -14.7266 -0.350036
rtoes 8.71428
lfemur -40.9216 -0.111145 -19.034
ltibia 33.3426
lfoot -28.7979 5.26693
ltoes -22.8957
1395
root 5.05122 16.4595 -3.62259 -205.932 -70.5382 203.002
lowerback 7.06303 -1.17822 8.42028
upperback 1.39925 -0.987233 1.33621
thorax -2.62192 -0.586782 -3.24289
lowerneck -2.20909 -0.86422 1.75587
upperneck 4.42087 -1.41768 3.10389
head 1.75927 -0.633754 0.641475
rclavicle 1.51201e-014 7.7526e-015
rhumerus -41.2858 -17.0451 -80.3323
rradius 17.9975
rwrist 16.171
rhand -21.8303 -9.99823
rfingers 7.12502
rthumb 4.57261 -39.9289
lclavicle 1.51201e-014 7.7526e-015
lhumerus -40.9753 27.4243 67.1378
lradius 8.89663
lwrist -4.53872
lhand -19.424 12.3545
lfingers 7.12502
lthumb 6.89582 42.2222
rfemur 23.7207 -3.08881 36.9038
rtibia 2.8625e-014
rfoot -14.5782 -0.177377
rtoes 8.83035
lfemur -40.2157 -0.15645 -18.8169
ltibia 32.5487
lfoot -29.0832 4.91793
ltoes -22.7452
1396
root 4.94841 16.4433 -3.65931 -205.766 -70.2561 203.001
lowerback 6.87672 -1.12624 8.5122
upperback 1.36644 -0.928148 1.33347
thorax -2.54641 -0.555729 -3.30504
lowerneck -2.21845 -0.845943 1.76882
upperneck 4.31181 -1.39142 3.13977
head 1.72582 -0.621287 0.650934
rclavicle -3.41661e-016 1.96797e-014
rhumerus -41.314 -17.2306 -80.2002
rradius 17.8466
rwrist 16.4515
rhand -21.8559 -9.99854
rfingers 7.12502
rthumb 4.54793 -39.9297
lclavicle -3.41661e-016 1.96797e-014
lhumerus -41.0179 27.4666 67.0337
lradius 8.82598
lwrist -4.59846
lhand -19.4373 12.4041
lfingers 7.12502
lthumb 6.88307 42.2722
rfemur 23.9988 -2.89524 37.0294
rtibia -2.22639e-014
rfoot -14.4277 0.000722651
rtoes 8.88003
lfemur -39.5378 -0.0656455 -18.697
ltibia 31.8401
lfoot -29.3597 4.61206
ltoes -22.584
1397
root 4.84346 16.4278 -3.69692 -205.573 -69.9797 202.952
lowerback 6.71155 -1.07607 8.5947
upperback 1.33766 -0.870637 1.32053
thorax -2.4785 -0.525494 -3.37187
lowerneck -2.2258 -0.828397 1.7818
upperneck 4.19863 -1.3658 3.17418
head 1.69071 -0.6093 0.659888
rclavicle -3.71914e-014 -1.03368e-014
rhumerus -41.3368 -17.3974 -80.0906
rradius 17.6899
rwrist 16.7223
rhand -21.8651 -9.98793
rfingers 7.12502
rthumb 4.53901 -39.9193
lclavicle -3.71914e-014 -1.03368e-014
lhumerus -41.0672 27.5035 66.9175
lradius 8.76955
lwrist -4.64264
lhand -19.4567 12.4297
lfingers 7.12502
lthumb 6.86433 42.2984
rfemur 24.3062 -2.70418 37.1325
rtibia -4.45278e-014
rfoot -14.2618 0.165872
rtoes 8.90016
lfemur -38.8757 0.213271 -18.6984
ltibia 31.2131
lfoot -29.624 4.46599
ltoes -22.6846
1398
root 4.73639 16.4133 -3.73543 -205.365 -69.7036 202.862
lowerback 6.56859 -1.02578 8.67175
upperback 1.31324 -0.811669 1.29915
thorax -2.4181 -0.494626 -3.44409
lowerneck -2.2235 -0.811857 1.78881
upperneck 4.07911 -1.34091 3.21189
head 1.65201 -0.597956 0.67086
rclavicle 4.11484e-014 -1.21259e-014
rhumerus -41.361 -17.5307 -80.0127
rradius 17.5479
rwrist 16.9551
rhand -21.8547 -9.97593
rfingers 7.12502
rthumb 4.54903 -39.9071
lclavicle 4.11484e-014 -1.21259e-014
lhumerus -41.1165 27.5342 66.7935
lradius 8.71755
lwrist -4.68073
lhand -19.4712 12.4433
lfingers 7.12502
lthumb 6.85028 42.3124
rfemur 24.643 -2.51228 37.2154
rtibia -2.22639e-014
rfoot -14.0692 0.314599
rtoes 8.8945
lfemur -38.2232 0.687836 -18.8056
ltibia 30.6671
lfoot -29.7968 4.28461
ltoes -22.7828
1399
root 4.62724 16.3999 -3.7748 -205.159 -69.4235 202.759
lowerback 6.43712 -0.974418 8.7532
upperback 1.29447 -0.750493 1.27323
thorax -2.35782 -0.462546 -3.52338
lowerneck -2.22423 -0.796711 1.79144
upperneck 3.96079 -1.31769 3.24812
head 1.61431 -0.587519 0.682044
rclavicle -6.25054e-014 -1.96797e-014
rhumerus -41.3804 -17.625 -79.9709
rradius 17.4277
rwrist 17.1393
rhand -21.8245 -9.97445
rfingers 7.12502
rthumb 4.57824 -39.905
lclavicle -6.25054e-014 -1.96797e-014
lhumerus -41.1479 27.5641 66.6709
lradius 8.65292
lwrist -4.71497
lhand -19.4913 12.4447
lfingers 7.12502
lthumb 6.83094 42.3145
rfemur 24.9988 -2.31703 37.2864
rtibia 7.31528e-014
rfoot -13.8405 0.45622
rtoes 8.88831
lfemur -37.5876 1.31855 -18.9758
ltibia 30.2055
lfoot -29.8906 4.11992
ltoes -22.9334
1400
root 4.51582 16.388 -3.81491 -204.965 -69.1365 202.659
lowerback 6.30807 -0.9216 8.84394
upperback 1.27957 -0.687119 1.24633
thorax -2.29441 -0.429209 -3.60883
lowerneck -2.22529 -0.78265 1.79145
upperneck 3.84607 -1.29557 3.27794
head 1.57784 -0.577739 0.691624
rclavicle -1.22625e-014 -1.94809e-014
rhumerus -41.3987 -17.681 -79.9571
rradius 17.3355
rwrist 17.2805
rhand -21.7783 -9.95118
rfingers 7.12502
rthumb 4.62284 -39.8807
lclavicle -1.22625e-014 -1.94809e-014
lhumerus -41.1656 27.5962 66.5521
lradius 8.58111
lwrist -4.75635
lhand -19.5077 12.4574
lfingers 7.12502
lthumb 6.81504 42.3278
rfemur 25.3683 -2.11576 37.3486
rtibia 0
rfoot -13.5654 0.606754
rtoes 8.86723
lfemur -36.9695 2.01697 -19.1522
ltibia 29.8315
lfoot -29.8999 3.90643
ltoes -22.9724
1401
root 4.4022 16.377 -3.85554 -204.834 -68.8285 202.631
lowerback 6.17448 -0.866078 8.97298
upperback 1.25932 -0.618194 1.22657
thorax -2.23328 -0.393653 -3.70842
lowerneck -2.22627 -0.768693 1.79398
upperneck 3.74202 -1.27372 3.29933
head 1.54471 -0.568055 0.69814
rclavicle 2.14377e-014 -3.37934e-015
rhumerus -41.4228 -17.6948 -79.9705
rradius 17.2752
rwrist 17.3694
rhand -21.7072 -9.94328
rfingers 7.12502
rthumb 4.69154 -39.8713
lclavicle 2.14377e-014 -3.37934e-015
lhumerus -41.1807 27.6271 66.4347
lradius 8.50419
lwrist -4.80987
lhand -19.541 12.4741
lfingers 7.12502
lthumb 6.78289 42.3454
rfemur 25.7346 -1.90192 37.431
rtibia 0
rfoot -13.2354 0.784121
rtoes 8.84843
lfemur -36.382 2.68659 -19.2544
ltibia 29.5471
lfoot -29.8229 3.63686
ltoes -22.8258
